<svg width="106" height="46" viewBox="0 0 106 46" fill="none" xmlns="http://www.w3.org/2000/svg">
<path d="M42.0857 16.8519V11.0134H44.3313V25.3034H42.0857V18.9954H37.7783V25.3034H35.5123V11.0134H37.7783V16.8519H42.0857Z" fill="#FEC009"/>
<path d="M52.0259 24.7726C51.9443 24.8543 51.7946 24.9496 51.5768 25.0584C51.3727 25.1673 51.1277 25.2558 50.8419 25.3238C50.5697 25.4055 50.2907 25.4463 50.0049 25.4463C49.6919 25.4463 49.3789 25.4123 49.0659 25.3442C48.7528 25.2762 48.4534 25.1673 48.1676 25.0176C47.8818 24.8679 47.6301 24.6638 47.4123 24.4052C47.1946 24.1466 47.0244 23.8268 46.9019 23.4457C46.7795 23.0646 46.7182 22.6087 46.7182 22.0779V15.0758H49.0046V22.0371C49.0046 22.3501 49.0523 22.6087 49.1475 22.8129C49.2428 23.0034 49.3789 23.1463 49.5558 23.2416C49.7463 23.3232 49.9777 23.364 50.2499 23.364C50.4813 23.364 50.7058 23.3232 50.9236 23.2416C51.1413 23.1599 51.3319 23.0442 51.4952 22.8945C51.6585 22.7448 51.7878 22.5747 51.883 22.3842C51.9783 22.18 52.0259 21.9555 52.0259 21.7105V15.0758H54.2715V25.3034H52.0259V24.7726Z" fill="#FEC009"/>
<path d="M62.3343 17.4235C62.1846 17.3418 62.0145 17.2738 61.824 17.2193C61.6334 17.1513 61.4293 17.1037 61.2115 17.0764C61.0074 17.0356 60.7896 17.0152 60.5583 17.0152C60.4358 17.0152 60.2997 17.022 60.15 17.0356C60.0139 17.0492 59.8778 17.0832 59.7417 17.1377C59.6056 17.1785 59.4899 17.2466 59.3947 17.3418C59.313 17.4235 59.2722 17.5392 59.2722 17.6889C59.2722 17.893 59.3538 18.0699 59.5171 18.2196C59.6941 18.3693 59.9254 18.5054 60.2112 18.6279C60.497 18.7504 60.81 18.8797 61.1503 19.0158C61.4905 19.1383 61.824 19.288 62.1506 19.4649C62.4908 19.6418 62.8038 19.8528 63.0896 20.0978C63.3754 20.3427 63.6 20.6489 63.7633 21.0164C63.9402 21.3702 64.0287 21.7989 64.0287 22.3025C64.0287 22.8469 63.9266 23.3232 63.7225 23.7315C63.5183 24.1398 63.2394 24.4868 62.8855 24.7726C62.5453 25.0448 62.1506 25.249 61.7015 25.3851C61.266 25.5348 60.81 25.6096 60.3337 25.6096C59.5852 25.6096 58.8707 25.4531 58.1902 25.1401C57.5097 24.8271 56.9313 24.4052 56.455 23.8744L57.7819 22.4862C57.9997 22.6768 58.231 22.8537 58.476 23.017C58.7346 23.1667 59 23.2892 59.2722 23.3845C59.5444 23.4661 59.8166 23.5069 60.0887 23.5069C60.2657 23.5069 60.4426 23.4865 60.6195 23.4457C60.81 23.4049 60.9802 23.3368 61.1299 23.2416C61.2796 23.1463 61.4021 23.0238 61.4973 22.8741C61.5926 22.7244 61.6402 22.5475 61.6402 22.3433C61.6402 22.0711 61.5518 21.8466 61.3748 21.6697C61.2115 21.4927 60.987 21.3362 60.7012 21.2001C60.429 21.0504 60.1228 20.9075 59.7825 20.7714C59.4559 20.6353 59.1225 20.4924 58.7822 20.3427C58.4556 20.1794 58.1494 19.9821 57.8636 19.7507C57.5914 19.5193 57.3668 19.2404 57.1899 18.9137C57.0266 18.5871 56.9449 18.1924 56.9449 17.7297C56.9449 17.2261 57.0402 16.7906 57.2307 16.4232C57.4213 16.0557 57.6799 15.7563 58.0065 15.5249C58.3467 15.28 58.721 15.1031 59.1293 14.9942C59.5376 14.8717 59.9526 14.8104 60.3745 14.8104C60.674 14.8104 60.9802 14.8377 61.2932 14.8921C61.6198 14.9465 61.9328 15.0282 62.2322 15.1371C62.5317 15.246 62.797 15.382 63.0284 15.5454L62.3343 17.4235Z" fill="#FEC009"/>
<path d="M72.1731 16.9335C72.1731 16.9335 72.0846 16.9131 71.9077 16.8723C71.7444 16.8179 71.479 16.7906 71.1115 16.7906C70.8938 16.7906 70.6692 16.8042 70.4378 16.8315C70.2065 16.8451 69.9751 16.8791 69.7438 16.9335C69.526 16.9744 69.3083 17.0288 69.0905 17.0968C68.8727 17.1649 68.6618 17.2534 68.4577 17.3622V25.3034H66.1917V15.0758H68.4577V15.4841C68.7979 15.2528 69.179 15.0758 69.6009 14.9533C70.0228 14.8309 70.4515 14.7696 70.887 14.7696C71.2 14.7696 71.4926 14.8036 71.7648 14.8717C72.037 14.9261 72.2819 14.9942 72.4997 15.0758L72.1731 16.9335Z" fill="#FEC009"/>
<path d="M74.1927 25.3034V15.0758H76.4587V25.3034H74.1927ZM75.3359 10.8092C75.6761 10.8092 75.9619 10.9181 76.1933 11.1359C76.4382 11.3536 76.5607 11.6394 76.5607 11.9933C76.5607 12.3335 76.4382 12.6261 76.1933 12.8711C75.9619 13.1024 75.6761 13.2181 75.3359 13.2181C74.9956 13.2181 74.703 13.1024 74.458 12.8711C74.2267 12.6261 74.111 12.3335 74.111 11.9933C74.111 11.6394 74.2267 11.3536 74.458 11.1359C74.703 10.9181 74.9956 10.8092 75.3359 10.8092Z" fill="#FEC009"/>
<path d="M85.6031 25.3034C85.3854 25.3306 85.1608 25.3578 84.9294 25.3851C84.7117 25.4123 84.4803 25.4327 84.2353 25.4463C84.004 25.4735 83.7658 25.4871 83.5208 25.4871C83.2759 25.5007 83.0241 25.5075 82.7655 25.5075C82.5205 25.5212 82.262 25.528 81.9898 25.528C81.4182 25.528 80.8738 25.4599 80.3566 25.3238C79.8395 25.2013 79.3835 25.004 78.9889 24.7318C78.5942 24.4596 78.2812 24.1126 78.0498 23.6907C77.8321 23.2552 77.7232 22.7312 77.7232 22.1188V17.9543C77.7232 17.4235 77.8116 16.9676 77.9886 16.5865C78.1655 16.2054 78.3968 15.8924 78.6826 15.6474C78.9821 15.3889 79.3155 15.1983 79.683 15.0758C80.0504 14.9533 80.4179 14.8921 80.7853 14.8921C81.2617 14.8921 81.6972 14.9329 82.0918 15.0146C82.5001 15.0962 82.922 15.2323 83.3575 15.4229V11.0134H85.6031V25.3034ZM83.3575 17.7297C83.235 17.6616 83.0037 17.5664 82.6634 17.4439C82.3232 17.3078 81.9149 17.2397 81.4386 17.2397C81.2753 17.2397 81.112 17.2602 80.9486 17.301C80.7853 17.3282 80.6288 17.3827 80.4791 17.4643C80.343 17.5324 80.2273 17.6344 80.1321 17.7705C80.0504 17.893 80.0096 18.0495 80.0096 18.2401V21.7309C80.0096 21.9895 80.0368 22.2276 80.0912 22.4454C80.1457 22.6495 80.2409 22.8265 80.377 22.9762C80.5267 23.1123 80.7377 23.2211 81.0099 23.3028C81.2957 23.3845 81.6699 23.4253 82.1327 23.4253C82.2007 23.4253 82.2824 23.4253 82.3776 23.4253C82.4865 23.4117 82.5954 23.4049 82.7043 23.4049C82.8268 23.3913 82.9356 23.3845 83.0309 23.3845C83.1262 23.3845 83.201 23.3845 83.2555 23.3845C83.3235 23.3709 83.3575 23.364 83.3575 23.364V17.7297Z" fill="#FEC009"/>
<path d="M95.4418 26.6099C95.4418 27.3312 95.3125 27.9096 95.0539 28.3451C94.7954 28.7943 94.4279 29.1141 93.9516 29.3046C93.4752 29.5088 92.9104 29.6108 92.2572 29.6108L91.706 27.8552C91.8693 27.8552 92.0394 27.828 92.2164 27.7735C92.3933 27.7327 92.5566 27.6511 92.7063 27.5286C92.856 27.4197 92.9717 27.27 93.0533 27.0795C93.1486 26.8889 93.1962 26.6576 93.1962 26.3854V25.0584C93.0874 25.1401 92.9581 25.2149 92.8084 25.283C92.6723 25.3374 92.5226 25.3851 92.3593 25.4259C92.1959 25.4667 92.0258 25.4939 91.8489 25.5075C91.6856 25.5348 91.5223 25.5484 91.359 25.5484C90.2294 25.5484 89.3652 25.2217 88.7663 24.5685C88.1675 23.9016 87.8681 22.9421 87.8681 21.6901V18.2401C87.8681 17.546 87.9906 16.9471 88.2356 16.4436C88.4941 15.94 88.8616 15.5522 89.3379 15.28C89.8279 15.0078 90.4199 14.8717 91.114 14.8717C91.3726 14.8717 91.6175 14.8989 91.8489 14.9533C92.0939 14.9942 92.3252 15.0622 92.543 15.1575C92.7743 15.2528 92.9921 15.3752 93.1962 15.5249V15.0758H95.4418V26.6099ZM93.1962 17.4031C93.1962 17.4031 93.1486 17.3826 93.0533 17.3418C92.9581 17.2874 92.8288 17.2329 92.6655 17.1785C92.5158 17.1105 92.3456 17.0492 92.1551 16.9948C91.9782 16.9403 91.8081 16.9131 91.6448 16.9131C91.4542 16.9131 91.2637 16.9403 91.0732 16.9948C90.8962 17.0356 90.7329 17.1105 90.5832 17.2193C90.4471 17.3282 90.3382 17.4847 90.2566 17.6889C90.1749 17.8794 90.1341 18.1176 90.1341 18.4034V22.0371C90.1341 22.2957 90.1817 22.5407 90.277 22.772C90.3859 23.0034 90.5424 23.1871 90.7465 23.3232C90.9643 23.4593 91.2297 23.5206 91.5427 23.5069C91.8285 23.4933 92.0735 23.4525 92.2776 23.3845C92.4817 23.3164 92.6519 23.2348 92.788 23.1395C92.924 23.0306 93.0261 22.9149 93.0942 22.7924C93.1622 22.67 93.1962 22.5543 93.1962 22.4454V17.4031Z" fill="#FEC009"/>
<path d="M99.9528 22.2617C99.9528 22.4386 99.98 22.6019 100.034 22.7516C100.089 22.8877 100.164 23.0102 100.259 23.1191C100.354 23.2279 100.477 23.3096 100.626 23.364C100.776 23.4185 100.939 23.4457 101.116 23.4457C101.484 23.4457 101.899 23.364 102.362 23.2007C102.838 23.0374 103.287 22.8469 103.709 22.6291L104.526 24.5889C104.063 24.8883 103.518 25.1265 102.892 25.3034C102.28 25.4803 101.668 25.5688 101.055 25.5688C100.579 25.5688 100.13 25.5075 99.7078 25.3851C99.2995 25.2626 98.9388 25.0788 98.6258 24.8339C98.3264 24.5889 98.0882 24.2759 97.9113 23.8948C97.748 23.5138 97.6663 23.0646 97.6663 22.5475V18.3625C97.6663 17.5868 97.8297 16.9403 98.1563 16.4232C98.4965 15.906 98.9525 15.5181 99.5241 15.2596C100.096 15.001 100.735 14.8717 101.443 14.8717C102.164 14.8717 102.79 15.001 103.321 15.2596C103.865 15.5045 104.287 15.8856 104.587 16.4028C104.886 16.9063 105.036 17.5392 105.036 18.3013V21.4859L99.9528 21.7513V22.2617ZM102.77 18.9137C102.77 18.6007 102.736 18.3013 102.668 18.0155C102.6 17.7161 102.471 17.4711 102.28 17.2806C102.089 17.09 101.804 17.0084 101.423 17.0356C101.014 17.0492 100.701 17.1377 100.484 17.301C100.279 17.4507 100.136 17.6616 100.055 17.9338C99.9868 18.1924 99.9528 18.5122 99.9528 18.8933V19.6895L102.77 19.5057V18.9137Z" fill="#FEC009"/>
<path fill-rule="evenodd" clip-rule="evenodd" d="M14.4283 10.5254C5.29193 13.4813 0.462645 19.9342 0.0269187 28.3307C-0.476315 38.0237 6.14337 45.5909 14.2546 45.4271L14.2869 34.5737L17.9083 30.3885L17.9635 45.5026C21.9886 45.6405 24.8068 42.5117 26.6311 40.6898C32.0743 35.2533 31.3854 29.8738 31.3854 23.1375C31.3854 15.9943 31.1476 7.36808 31.3405 0.493042C30.475 0.889545 25.0995 4.28571 23.7528 5.07765C21.3543 6.48862 20.191 7.11193 17.9099 8.51543L17.8856 20.6888L14.257 24.4001L14.4286 10.526L14.4283 10.5254Z" fill="#FEC009"/>
</svg>
